<svg width="1386" height="120" viewBox="0 0 1386 120" xmlns="http://www.w3.org/2000/svg">
<g transform="translate(20,98) scale(0.055,-0.055)"><path d="M652 1500Q833 1500 947.5 1446.5Q1062 1393 1117.0 1296.0Q1172 1199 1172 1069Q1172 939 1117.0 844.5Q1062 750 947.5 699.0Q833 648 652 648H433V39H612V0H62V39H242V1461H62V1500ZM433 687H652Q724 687 779.5 721.0Q835 755 873.5 811.0Q912 867 932.0 934.5Q952 1002 952 1069Q952 1136 932.0 1205.0Q912 1274 873.5 1332.0Q835 1390 779.5 1425.5Q724 1461 652 1461H433Z" fill="#1a1a1a"/></g><g transform="translate(98.235,98) scale(0.055,-0.055)"><path d="M422 754V777H722Q818 777 885.5 816.5Q953 856 988.0 932.0Q1023 1008 1023 1117Q1023 1226 988.0 1303.0Q953 1380 885.5 1420.5Q818 1461 722 1461H62V1500H722Q873 1500 985.5 1458.5Q1098 1417 1160.0 1332.0Q1222 1247 1222 1117Q1222 987 1164.0 907.0Q1106 827 994.5 790.5Q883 754 722 754ZM62 0V39H693V0ZM282 0V1500H472V0ZM1212 0Q1125 0 1075.5 31.0Q1026 62 1003.0 115.0Q980 168 973.0 233.5Q966 299 964.5 369.0Q963 439 955.5 504.5Q948 570 924.5 623.0Q901 676 851.0 707.0Q801 738 712 738H422V759H752Q899 759 986.5 720.0Q1074 681 1118.0 617.0Q1162 553 1177.5 476.0Q1193 399 1194.5 322.0Q1196 245 1197.5 181.0Q1199 117 1216.5 78.0Q1234 39 1282 39Q1314 39 1323.0 39.0Q1332 39 1353 39V0Q1341 0 1327.5 0.0Q1314 0 1297.5 0.0Q1281 0 1260.0 0.0Q1239 0 1212 0Z" fill="#1a1a1a"/></g><g transform="translate(183.235,98) scale(0.055,-0.055)"><path d="M62 0V39H242V1461H62V1500H1129V1090H1090Q1090 1197 1059.5 1281.0Q1029 1365 959.5 1413.0Q890 1461 773 1461H433V39H752Q889 39 967.0 89.0Q1045 139 1077.5 231.0Q1110 323 1110 450H1149V0ZM750 557Q750 624 724.5 668.0Q699 712 654.0 734.0Q609 756 552 756H385V795H552Q609 795 654.0 815.0Q699 835 724.5 877.0Q750 919 750 986H789V557Z" fill="#1a1a1a"/></g><g transform="translate(259.27,98) scale(0.055,-0.055)"><path d="M791 -20 235 1500H427L890 249L1323 1500H1365L840 -20ZM255 1500V39H403V0H72V39H214V1461H62V1500ZM1684 1500V1461H1544V39H1684V0H1193V39H1354V1500Z" fill="#1a1a1a"/></g><g transform="translate(363.245,98) scale(0.055,-0.055)"><path d="M62 0V39H282V1461H62V1500H712V1461H472V39H712V0Z" fill="#1a1a1a"/></g><g transform="translate(413.815,98) scale(0.055,-0.055)"><path d="M1384 1500V1461H1195V460Q1195 213 1083.5 92.0Q972 -29 735 -29Q476 -29 355.5 86.0Q235 201 235 460V1461H56V1500H626V1461H426V480Q426 381 440.5 296.5Q455 212 492.5 149.5Q530 87 598.5 52.0Q667 17 775 17Q899 17 984.0 62.5Q1069 108 1113.0 205.5Q1157 303 1157 460V1461H973V1500Z" fill="#1a1a1a"/></g><g transform="translate(501.675,98) scale(0.055,-0.055)"><path d="M791 -20 235 1500H427L890 249L1323 1500H1365L840 -20ZM255 1500V39H403V0H72V39H214V1461H62V1500ZM1684 1500V1461H1544V39H1684V0H1193V39H1354V1500Z" fill="#1a1a1a"/></g>
  <g transform="translate(621.65,98) scale(0.055,-0.055)"><path d="M422 754V777H722Q818 777 885.5 816.5Q953 856 988.0 932.0Q1023 1008 1023 1117Q1023 1226 988.0 1303.0Q953 1380 885.5 1420.5Q818 1461 722 1461H62V1500H722Q873 1500 985.5 1458.5Q1098 1417 1160.0 1332.0Q1222 1247 1222 1117Q1222 987 1164.0 907.0Q1106 827 994.5 790.5Q883 754 722 754ZM62 0V39H693V0ZM282 0V1500H472V0ZM1212 0Q1125 0 1075.5 31.0Q1026 62 1003.0 115.0Q980 168 973.0 233.5Q966 299 964.5 369.0Q963 439 955.5 504.5Q948 570 924.5 623.0Q901 676 851.0 707.0Q801 738 712 738H422V759H752Q899 759 986.5 720.0Q1074 681 1118.0 617.0Q1162 553 1177.5 476.0Q1193 399 1194.5 322.0Q1196 245 1197.5 181.0Q1199 117 1216.5 78.0Q1234 39 1282 39Q1314 39 1323.0 39.0Q1332 39 1353 39V0Q1341 0 1327.5 0.0Q1314 0 1297.5 0.0Q1281 0 1260.0 0.0Q1239 0 1212 0Z" fill="#C9A96E"/></g><g transform="translate(706.65,98) scale(0.055,-0.055)"><path d="M62 0V39H242V1461H62V1500H1129V1090H1090Q1090 1197 1059.5 1281.0Q1029 1365 959.5 1413.0Q890 1461 773 1461H433V39H752Q889 39 967.0 89.0Q1045 139 1077.5 231.0Q1110 323 1110 450H1149V0ZM750 557Q750 624 724.5 668.0Q699 712 654.0 734.0Q609 756 552 756H385V795H552Q609 795 654.0 815.0Q699 835 724.5 877.0Q750 919 750 986H789V557Z" fill="#C9A96E"/></g><g transform="translate(782.685,98) scale(0.055,-0.055)"><path d="M308 1500V39H544V0H62V39H267V1461H62V1500ZM1486 1500V1461H1275V-20H1221L279 1500H509L1235 309V1461H1004V1500Z" fill="#C9A96E"/></g><g transform="translate(875.77,98) scale(0.055,-0.055)"><path d="M359 0V39H579V1461H379Q291 1461 236.5 1432.5Q182 1404 153.0 1350.5Q124 1297 113.0 1221.0Q102 1145 102 1050H62V1500H1286V1050H1247Q1247 1145 1236.0 1221.0Q1225 1297 1195.5 1350.5Q1166 1404 1111.5 1432.5Q1057 1461 969 1461H769V39H989V0Z" fill="#C9A96E"/></g><g transform="translate(957.855,98) scale(0.055,-0.055)"><path d="M432 469V508H1080V469ZM810 1529 1326 39H1482V0H902V39H1107L714 1256L290 39H502V0H62V39H245L769 1529Z" fill="#C9A96E"/></g><g transform="translate(1050.775,98) scale(0.055,-0.055)"><path d="M62 0V39H242V1461H62V1500H612V1461H433V39H742Q860 39 931.0 67.5Q1002 96 1038.5 149.5Q1075 203 1087.0 279.0Q1099 355 1099 450H1139V0Z" fill="#C9A96E"/></g><g transform="translate(1125.16,98) scale(0.055,-0.055)"><path d="M620 -29Q491 -29 397.0 11.0Q303 51 240 121L147 -20H113V391H152Q168 309 203.0 240.0Q238 171 293.5 120.0Q349 69 425.5 40.5Q502 12 602 12Q708 12 785.5 48.0Q863 84 905.0 152.5Q947 221 947 320Q947 408 904.0 468.5Q861 529 789.5 573.5Q718 618 633.0 655.5Q548 693 463.0 734.0Q378 775 306.5 829.5Q235 884 192.0 961.5Q149 1039 149 1150Q149 1261 205.0 1344.0Q261 1427 355.5 1473.5Q450 1520 564 1520Q663 1520 746.0 1488.5Q829 1457 890 1393L983 1520H1016V1109H978Q958 1234 903.0 1315.5Q848 1397 766.0 1436.5Q684 1476 583 1476Q440 1476 366.5 1408.5Q293 1341 293 1230Q293 1151 335.5 1096.0Q378 1041 448.0 999.5Q518 958 602.0 921.0Q686 884 770.0 841.5Q854 799 924.0 741.0Q994 683 1036.5 600.5Q1079 518 1079 400Q1079 270 1023.0 173.5Q967 77 864.0 24.0Q761 -29 620 -29Z" fill="#C9A96E"/></g>
  
<circle cx="1240.52" cy="60" r="24.0" fill="none" stroke="#1a1a1a" stroke-width="7.000000000000001" stroke-linecap="round"/>
<line x1="1264.52" y1="60" x2="1340.52" y2="60" stroke="#1a1a1a" stroke-width="7.000000000000001" stroke-linecap="round"/>
<line x1="1328.52" y1="60" x2="1328.52" y2="78.0" stroke="#1a1a1a" stroke-width="7.000000000000001" stroke-linecap="round"/>
<line x1="1312.52" y1="60" x2="1312.52" y2="72.0" stroke="#1a1a1a" stroke-width="7.000000000000001" stroke-linecap="round"/>
</svg>